<svg width="57" height="57" viewBox="0 0 57 57" fill="none" xmlns="http://www.w3.org/2000/svg">
<path fill-rule="evenodd" clip-rule="evenodd" d="M26.0798 15.916C25.6592 15.986 25.3787 16.406 25.4488 16.826C25.5189 17.211 25.8695 17.456 26.22 17.456H26.3602C26.7809 17.386 27.0613 16.966 26.9912 16.546C26.9211 16.126 26.5004 15.846 26.0798 15.916ZM31.9687 17.946C31.5481 17.806 31.3728 17.351 31.513 16.966C31.6533 16.581 32.1089 16.371 32.4945 16.511C32.8801 16.651 33.1255 17.106 32.9502 17.526C32.8451 17.841 32.5296 18.051 32.2141 18.051C32.1628 17.9997 32.1115 17.986 32.0464 17.9686C32.0226 17.9622 31.9969 17.9554 31.9687 17.946ZM20.261 18.646C19.9104 18.926 19.8754 19.416 20.1558 19.731C20.296 19.941 20.5414 20.011 20.7517 20.011C20.927 20.011 21.1022 19.941 21.2425 19.836C21.593 19.556 21.628 19.066 21.3476 18.751C21.0672 18.401 20.5764 18.366 20.261 18.646ZM36.5958 21.166C36.3153 20.851 36.3504 20.361 36.7009 20.081C37.0164 19.801 37.5071 19.836 37.7876 20.186C38.068 20.501 38.0329 20.991 37.6824 21.271C37.5422 21.411 37.3669 21.446 37.1917 21.446C36.9813 21.446 36.736 21.341 36.5958 21.166ZM16.5804 23.966C16.4402 24.351 16.6505 24.806 17.0361 24.946C17.0711 24.946 17.1149 24.9547 17.1588 24.9635C17.2026 24.9722 17.2464 24.981 17.2814 24.981C17.5969 24.981 17.9124 24.771 18.0176 24.456C18.1578 24.071 17.9475 23.616 17.5619 23.476C17.1763 23.301 16.7206 23.511 16.5804 23.931V23.966ZM38.9794 26.276C38.9093 25.856 39.1897 25.436 39.6103 25.366C40.031 25.296 40.4516 25.576 40.5217 25.996C40.5918 26.416 40.3114 26.836 39.8908 26.906H39.7505C39.365 26.906 39.0495 26.661 38.9794 26.276ZM16.6505 29.426C16.2298 29.496 15.9494 29.916 16.0195 30.336C16.0546 30.721 16.4051 30.966 16.7907 30.966H16.9309C17.3515 30.896 17.632 30.476 17.5619 30.056C17.4918 29.636 17.0711 29.356 16.6505 29.426ZM38.9443 32.856C38.5587 32.716 38.3484 32.261 38.4886 31.876C38.6288 31.491 39.0845 31.246 39.5052 31.421C39.8908 31.561 40.1011 32.016 39.9609 32.401C39.8557 32.716 39.5402 32.926 39.2248 32.926C39.1415 32.926 39.0803 32.9041 39.0062 32.8776C38.9867 32.8706 38.9663 32.8633 38.9443 32.856ZM18.8238 35.061C18.4733 35.341 18.4382 35.831 18.7186 36.146C18.8939 36.356 19.1042 36.426 19.3145 36.426C19.4898 36.426 19.6651 36.356 19.8053 36.251C20.1558 35.971 20.1909 35.481 19.9104 35.166C19.63 34.816 19.1393 34.781 18.8238 35.061ZM35.1586 37.581C34.8782 37.266 34.9132 36.776 35.2637 36.496C35.5792 36.216 36.07 36.251 36.3504 36.601C36.6308 36.916 36.5958 37.406 36.2452 37.686C36.105 37.826 35.9297 37.861 35.7545 37.861C35.5442 37.861 35.3338 37.756 35.1586 37.581ZM23.556 38.876C23.3807 39.261 23.6261 39.716 24.0117 39.856C24.0496 39.8749 24.0978 39.8836 24.1508 39.8932L24.1508 39.8932C24.1956 39.9013 24.2439 39.9099 24.2921 39.926C24.6076 39.926 24.923 39.716 25.0282 39.401C25.2035 39.016 24.9931 38.561 24.5725 38.421C24.1519 38.246 23.6962 38.491 23.556 38.876ZM30.146 38.876C29.7253 38.946 29.4449 39.366 29.515 39.786C29.5851 40.136 29.9356 40.416 30.2862 40.416H30.4264C30.847 40.346 31.1275 39.926 31.0574 39.506C30.9872 39.086 30.5666 38.806 30.146 38.876Z" fill="url(#paint0_linear_0_42)"/>
<path fill-rule="evenodd" clip-rule="evenodd" d="M29.7255 14.5159C29.6203 15.0059 29.9708 15.4609 30.4616 15.5659C30.5317 15.5659 30.5667 15.5659 30.6018 15.6009C31.0575 15.6009 31.4431 15.2859 31.5132 14.8309C31.6183 14.3409 31.2678 13.8859 30.7771 13.7809C30.2863 13.6759 29.8306 14.0259 29.7255 14.5159ZM22.7148 15.6009C22.5395 15.1109 22.7849 14.5859 23.2757 14.4459C23.7664 14.2709 24.2922 14.5159 24.4324 15.0059C24.6077 15.4959 24.3623 16.0209 23.8716 16.1609C23.7664 16.1959 23.6613 16.2309 23.5561 16.2309C23.1705 16.1959 22.82 15.9859 22.7148 15.6009ZM36.3856 17.0709C36.035 17.4559 36.1051 18.0509 36.4907 18.3659C36.666 18.5059 36.8763 18.5759 37.0866 18.5759C37.332 18.5759 37.6124 18.4709 37.7877 18.2609C38.1382 17.8759 38.0681 17.2809 37.6825 16.9659C37.297 16.6159 36.701 16.6859 36.3856 17.0709ZM17.1414 20.0459C16.7558 19.7309 16.6857 19.1359 17.0362 18.7509C17.3517 18.3659 17.9476 18.2959 18.3332 18.6459C18.7188 18.9609 18.7889 19.5559 18.4383 19.9409C18.2631 20.1509 17.9826 20.2559 17.7373 20.2559C17.5269 20.2559 17.3166 20.2209 17.1414 20.0459ZM40.8373 22.6359C40.3466 22.7759 40.1012 23.3009 40.2765 23.7909C40.4167 24.1409 40.7672 24.3859 41.1528 24.4209C41.258 24.4209 41.3631 24.3859 41.4683 24.3509C41.924 24.2109 42.1693 23.6859 41.9941 23.1959C41.8539 22.7059 41.3281 22.4609 40.8373 22.6359ZM14.5825 26.6959C14.0917 26.5909 13.7412 26.1359 13.8464 25.6459C13.9515 25.1559 14.4072 24.8059 14.8979 24.9109C15.3887 25.0159 15.7392 25.4709 15.6341 25.9609C15.564 26.4159 15.1784 26.7309 14.7227 26.7309C14.6876 26.6959 14.6175 26.6959 14.5825 26.6959ZM40.8724 30.3709C40.7672 30.8609 41.1178 31.3159 41.6085 31.4209C41.6786 31.4559 41.7137 31.4559 41.7487 31.4559C42.2044 31.4559 42.59 31.1409 42.6601 30.6859C42.7653 30.1959 42.4147 29.7409 41.924 29.6359C41.4332 29.5309 40.9775 29.8809 40.8724 30.3709ZM14.5124 33.2059C14.3371 32.7159 14.5825 32.1909 15.0382 32.0159C15.4939 31.8409 16.0197 32.0859 16.1949 32.5759C16.3702 33.0659 16.1248 33.5909 15.6341 33.7659C15.5289 33.8009 15.4237 33.8359 15.3186 33.8359C15.0031 33.7659 14.6526 33.5559 14.5124 33.2059ZM38.0681 36.3559C37.7176 36.7409 37.7877 37.3359 38.1733 37.6509C38.3485 37.8259 38.5589 37.8959 38.7692 37.8609C39.0146 37.8609 39.295 37.7559 39.4702 37.5459C39.8208 37.1609 39.7507 36.5659 39.3651 36.2509C38.9795 35.9009 38.3836 35.9709 38.0681 36.3559ZM18.859 39.3659C18.4734 39.0509 18.4033 38.4559 18.7538 38.0709C19.0693 37.6859 19.6652 37.6159 20.0508 37.9659C20.4364 38.2809 20.5065 38.8759 20.1559 39.2609C19.9807 39.4709 19.7002 39.5759 19.4549 39.5759C19.2445 39.5759 19.0342 39.5059 18.859 39.3659ZM32.6699 40.1709C32.1792 40.3459 31.9338 40.8709 32.1091 41.3609C32.2493 41.7109 32.5998 41.9559 32.9854 41.9559C33.0906 41.9559 33.1957 41.9209 33.3009 41.8859C33.7916 41.7459 34.037 41.2209 33.8617 40.7309C33.6865 40.2409 33.1607 39.9959 32.6699 40.1709ZM24.9933 41.5009C24.8881 41.9909 25.2386 42.4459 25.7294 42.5509C25.7644 42.5859 25.8346 42.5859 25.8696 42.5509C26.3253 42.5509 26.7109 42.2709 26.781 41.8159C26.8861 41.3259 26.5356 40.8709 26.0449 40.7659C25.5541 40.6609 25.0984 41.0109 24.9933 41.5009Z" fill="url(#paint1_linear_0_42)"/>
<path fill-rule="evenodd" clip-rule="evenodd" d="M28.2531 10.9458C27.6572 10.9458 27.1665 11.4358 27.1665 12.0308C27.1665 12.6258 27.6572 13.1158 28.2531 13.1158C28.849 13.1158 29.3398 12.6258 29.3398 12.0308C29.3398 11.4358 28.849 10.9458 28.2531 10.9458ZM19.63 13.2558C19.1393 13.5358 18.929 14.2008 19.2444 14.7258C19.4548 15.0758 19.8053 15.2858 20.1909 15.2508C20.3661 15.2508 20.5414 15.2158 20.7167 15.1108C21.2074 14.7958 21.3827 14.1658 21.1023 13.6408C20.7868 13.1158 20.1558 12.9408 19.63 13.2558ZM13.3555 19.5558C13.04 20.0808 13.2153 20.7108 13.7411 21.0258C13.9164 21.1308 14.0916 21.2008 14.2669 21.1658C14.6525 21.1658 15.003 20.9908 15.2133 20.6408C15.5288 20.1158 15.3535 19.4508 14.8277 19.1708C14.3019 18.8558 13.671 19.0308 13.3555 19.5558ZM12.1286 27.0808C11.5327 27.0808 11.042 27.5708 11.042 28.1658C11.042 28.7608 11.4977 29.2508 12.1286 29.2508C12.7245 29.2508 13.2153 28.7608 13.2153 28.1658C13.2153 27.5708 12.7245 27.0808 12.1286 27.0808ZM41.7136 37.1608C41.1878 36.8458 41.0125 36.2158 41.328 35.6908C41.6434 35.1658 42.2744 34.9908 42.8002 35.3058C43.326 35.6208 43.5013 36.2508 43.1858 36.7758C42.9755 37.1258 42.6249 37.3008 42.2393 37.3008C42.0641 37.3008 41.8888 37.2308 41.7136 37.1608ZM13.7411 35.3058C13.2503 35.6208 13.04 36.2508 13.3555 36.7758C13.5308 37.1258 13.9164 37.3008 14.3019 37.3008C14.4772 37.3008 14.6525 37.2658 14.8277 37.1608C15.3185 36.8808 15.5288 36.2158 15.2133 35.6908C14.8978 35.2008 14.2669 35.0258 13.7411 35.3058ZM19.63 43.0408C19.63 43.0758 19.6651 43.0758 19.6651 43.0758C19.8403 43.1808 20.0156 43.2158 20.1558 43.1808C20.5414 43.1808 20.8919 43.0058 21.1023 42.6558C21.4177 42.1308 21.2425 41.4658 20.7167 41.1858C20.1909 40.8708 19.5599 41.0458 19.2444 41.5708C18.929 42.0958 19.1042 42.7258 19.63 43.0408ZM28.2882 43.2158C27.6923 43.2158 27.2015 43.7058 27.2015 44.3008C27.2015 44.8958 27.6923 45.3508 28.2882 45.3858C28.8841 45.3858 29.3748 44.8958 29.3748 44.3008C29.3748 43.7058 28.8841 43.2158 28.2882 43.2158ZM35.404 42.6558C35.1235 42.1308 35.2988 41.4658 35.7896 41.1858C36.3154 40.8708 36.9463 41.0458 37.2618 41.5708C37.5773 42.0958 37.402 42.7608 36.8762 43.0408C36.7009 43.1458 36.5257 43.1808 36.3504 43.1808C35.9648 43.1808 35.6143 43.0058 35.404 42.6558ZM43.326 28.1658C43.326 27.5708 43.8167 27.0808 44.4127 27.0808C45.0086 27.0808 45.4993 27.5708 45.4993 28.1658C45.4993 28.7608 45.0086 29.2508 44.4127 29.2508C43.8167 29.2158 43.326 28.7608 43.326 28.1658ZM41.2929 20.6408C40.9774 20.1158 41.1878 19.4508 41.6785 19.1708C42.2043 18.8908 42.8353 19.0658 43.1507 19.5558C43.4662 20.0808 43.2559 20.7108 42.7651 21.0258C42.5899 21.1308 42.4146 21.1658 42.2393 21.1658C41.8538 21.1658 41.5032 20.9908 41.2929 20.6408ZM35.7896 15.1458C35.2638 14.8308 35.0885 14.2008 35.404 13.6758C35.6844 13.1508 36.3504 12.9758 36.8762 13.2908C37.402 13.5708 37.5773 14.2358 37.2618 14.7608C37.0515 15.1108 36.7009 15.2858 36.3154 15.2858C36.1401 15.2858 35.9648 15.2158 35.7896 15.1458Z" fill="url(#paint2_linear_0_42)"/>
<path fill-rule="evenodd" clip-rule="evenodd" d="M24.7125 8.25105C24.0465 8.39105 23.5557 9.02105 23.6959 9.72105C23.8011 10.316 24.3269 10.771 24.9578 10.736H25.1682C25.8342 10.596 26.3249 9.96605 26.1847 9.26605C26.0445 8.60105 25.4135 8.11105 24.7125 8.25105ZM34.3171 11.506C33.651 11.261 33.3356 10.526 33.5459 9.89605C33.7913 9.23105 34.5274 8.91605 35.1583 9.12605C35.8243 9.37105 36.1398 10.106 35.9295 10.736C35.7542 11.261 35.2635 11.576 34.7377 11.576C34.5975 11.611 34.4573 11.576 34.3171 11.506ZM15.2131 12.661C14.6873 13.116 14.6171 13.921 15.0728 14.446C15.3182 14.761 15.6687 14.901 16.0543 14.866C16.3348 14.866 16.6152 14.796 16.8606 14.586C17.3864 14.131 17.4565 13.326 17.0008 12.801C16.5451 12.276 15.7389 12.206 15.2131 12.661ZM41.8184 16.756C41.3627 16.231 41.4329 15.426 41.9587 14.971C42.4845 14.516 43.2907 14.586 43.7464 15.111C44.2021 15.636 44.132 16.441 43.6062 16.896C43.3608 17.106 43.0804 17.211 42.7999 17.211C42.4494 17.211 42.0638 17.071 41.8184 16.756ZM9.1839 21.271C8.97358 21.901 9.28906 22.636 9.95507 22.881C10.0953 22.916 10.2706 22.951 10.3757 22.951C10.9015 22.951 11.3923 22.636 11.5675 22.111C11.7778 21.481 11.4624 20.746 10.7963 20.501C10.1654 20.291 9.42927 20.606 9.1839 21.271ZM45.7093 25.086C45.5691 24.386 46.0599 23.756 46.7259 23.616C47.427 23.476 48.0579 23.966 48.1981 24.631C48.3383 25.331 47.8476 25.961 47.1816 26.101C47.1465 26.101 47.1115 26.1098 47.0764 26.1185C47.0414 26.1273 47.0063 26.136 46.9713 26.136C46.3403 26.101 45.8145 25.681 45.7093 25.086ZM9.32411 30.231C8.6581 30.371 8.20241 31.001 8.30757 31.701C8.41273 32.296 8.93853 32.716 9.56949 32.751C9.60453 32.751 9.63958 32.7423 9.67462 32.7336L9.67465 32.7335L9.67467 32.7335C9.70971 32.7248 9.74476 32.716 9.77981 32.716C10.4458 32.576 10.9366 31.946 10.7963 31.246C10.6561 30.581 10.0252 30.091 9.32411 30.231ZM45.6743 35.831C45.0083 35.586 44.6928 34.851 44.9031 34.221C45.1485 33.556 45.8846 33.241 46.5156 33.451C47.1816 33.696 47.4971 34.431 47.2867 35.061C47.1115 35.586 46.6207 35.901 46.0949 35.901C45.9898 35.901 45.8145 35.866 45.6743 35.831ZM12.8645 39.401C12.3387 39.856 12.2686 40.661 12.7243 41.1861C12.9696 41.466 13.3552 41.641 13.7058 41.641C13.9862 41.641 14.2666 41.536 14.512 41.326C15.0378 40.871 15.1079 40.066 14.6522 39.541C14.1965 39.016 13.3903 38.946 12.8645 39.401ZM39.5049 43.496C39.0492 42.971 39.1193 42.166 39.6451 41.711C40.1709 41.256 40.9772 41.326 41.4329 41.851C41.8885 42.376 41.8184 43.181 41.2926 43.636C41.0473 43.846 40.7668 43.916 40.4864 43.916C40.1359 43.951 39.7854 43.776 39.5049 43.496ZM20.5411 45.5611C20.2958 46.191 20.6463 46.926 21.3123 47.1711C21.4525 47.2411 21.6278 47.2411 21.733 47.2411C22.2587 47.2411 22.7495 46.926 22.9248 46.4011C23.1351 45.771 22.8196 45.036 22.1536 44.791C21.5226 44.5811 20.7865 44.896 20.5411 45.5611ZM31.3375 45.5961C30.6715 45.736 30.2158 46.3661 30.321 47.0661C30.4261 47.696 30.9519 48.1161 31.5829 48.1161C31.618 48.1161 31.653 48.1073 31.6881 48.0985C31.7231 48.0898 31.7582 48.0811 31.7932 48.0811H31.8283C32.4943 47.9411 32.985 47.3111 32.8448 46.611C32.7046 45.946 32.0736 45.4911 31.3726 45.5961H31.3375Z" fill="url(#paint3_linear_0_42)"/>
<path fill-rule="evenodd" clip-rule="evenodd" d="M30.6369 5.94088C30.4967 6.74588 31.0575 7.51588 31.8637 7.65588C31.9689 7.65588 32.039 7.65588 32.1091 7.69088C32.8102 7.69088 33.4411 7.20088 33.5813 6.46588C33.7216 5.66088 33.1607 4.89088 32.3545 4.75088C31.5483 4.57588 30.7771 5.13588 30.6369 5.94088ZM19.2095 7.69088C18.9291 6.92088 19.3147 6.08088 20.0859 5.80088C20.857 5.52088 21.6983 5.90588 21.9787 6.67588C22.2592 7.44588 21.8736 8.28588 21.1024 8.56588C20.9271 8.63588 20.7519 8.67088 20.5766 8.67088C19.9807 8.67088 19.4198 8.32088 19.2095 7.69088ZM41.4683 10.1059C40.9425 10.7359 41.0126 11.6809 41.6436 12.2059C41.924 12.4509 42.2745 12.5559 42.59 12.5559C43.0107 12.5559 43.4663 12.3809 43.7468 12.0309C44.2726 11.4009 44.2025 10.4559 43.5715 9.93088C42.9406 9.40588 41.9941 9.47588 41.4683 10.1059ZM10.1658 14.9709C9.53484 14.4459 9.46474 13.5009 9.99053 12.8709C10.5163 12.2409 11.4628 12.1709 12.0937 12.6959C12.7247 13.2209 12.7948 14.1659 12.269 14.7959C11.9886 15.1459 11.5679 15.3209 11.1122 15.3209C10.7968 15.3209 10.4462 15.2159 10.1658 14.9709ZM48.7243 19.1359C47.9532 19.4159 47.5676 20.2559 47.848 21.0259C48.0583 21.6209 48.6542 22.0059 49.2151 22.0059C49.3903 22.0059 49.5656 21.9709 49.7409 21.9009C50.512 21.6209 50.8976 20.7809 50.6172 20.0109C50.3368 19.2409 49.4955 18.8559 48.7243 19.1359ZM5.99447 25.7509C5.18824 25.6109 4.62739 24.8409 4.76761 24.0359C4.90782 23.2309 5.67899 22.6709 6.48521 22.8459C7.29144 22.9859 7.85229 23.7559 7.71207 24.5609C7.57186 25.2959 6.97596 25.7859 6.23984 25.7859C6.16973 25.7859 6.06457 25.7859 5.99447 25.7509ZM48.7944 31.7709C48.6542 32.5759 49.2151 33.3459 50.0213 33.4859C50.0914 33.5209 50.1966 33.5209 50.2667 33.4859C51.0028 33.4859 51.5987 32.9959 51.7389 32.2609C51.8791 31.4559 51.3183 30.6859 50.512 30.5459C49.7058 30.4059 48.9347 30.9659 48.7944 31.7709ZM5.85425 36.3209C5.57383 35.5509 5.95941 34.7109 6.73058 34.4309C7.50176 34.1509 8.34303 34.5359 8.65851 35.3059C8.93894 36.0759 8.55335 36.9159 7.74713 37.1959C7.57186 37.2659 7.3966 37.3009 7.25638 37.3009C6.66048 37.3009 6.06457 36.9159 5.85425 36.3209ZM44.2375 41.5359C43.7117 42.1659 43.7818 43.1109 44.4128 43.6359C44.6932 43.8809 45.0437 43.9859 45.3592 43.9859C45.8149 43.9859 46.2355 43.8109 46.516 43.4609V43.4259C47.0418 42.7959 46.9717 41.8509 46.3407 41.3259C45.7098 40.8009 44.7633 40.8709 44.2375 41.5009V41.5359ZM12.935 46.4009C12.304 45.8759 12.2339 44.9309 12.7597 44.3009C13.2855 43.6709 14.232 43.6009 14.8629 44.1259C15.4939 44.6509 15.564 45.5959 15.0382 46.2259C14.7578 46.5759 14.3371 46.7509 13.8814 46.7509C13.566 46.7509 13.2154 46.6459 12.935 46.4009ZM35.3691 47.7659C34.5979 48.0459 34.2123 48.8859 34.4927 49.6559C34.7381 50.2509 35.299 50.6359 35.8949 50.6359C36.0351 50.6359 36.2103 50.6009 36.3856 50.5309C37.1568 50.2509 37.5424 49.4109 37.2619 48.6409C36.9815 47.8709 36.1402 47.4859 35.3691 47.7659ZM22.8901 49.9009C22.7499 50.7059 23.3108 51.4759 24.117 51.6159C24.2221 51.6159 24.2922 51.6159 24.3623 51.6509C25.0985 51.6509 25.6944 51.1609 25.8346 50.4259C25.9748 49.6209 25.4139 48.8509 24.6077 48.7109C23.8015 48.5359 23.0303 49.0959 22.8901 49.9009Z" fill="url(#paint4_linear_0_42)"/>
<path fill-rule="evenodd" clip-rule="evenodd" d="M28.218 0.166016C27.2365 0.166016 26.4653 0.936016 26.4653 1.91602C26.4653 2.89602 27.2365 3.66602 28.218 3.66602C29.1995 3.66602 29.9706 2.89602 29.9706 1.91602C29.9706 0.936016 29.1995 0.166016 28.218 0.166016ZM40.4866 6.92102C39.6453 6.43102 39.3649 5.38102 39.8556 4.54102C40.3464 3.70102 41.398 3.42102 42.2392 3.91102C43.0805 4.40102 43.361 5.45102 42.8702 6.29102C42.5547 6.85102 41.9588 7.16602 41.3629 7.16602C41.0474 7.16602 40.767 7.09602 40.4866 6.92102ZM14.1967 3.94602C13.3554 4.40102 13.075 5.48602 13.5657 6.32602C13.8812 6.88602 14.4771 7.20102 15.073 7.20102C15.3534 7.20102 15.6689 7.13102 15.9493 6.95602C16.7906 6.46602 17.071 5.41602 16.5803 4.57602C16.0896 3.73602 15.038 3.45602 14.1967 3.94602ZM49.4953 15.881C49.0045 15.041 49.2849 13.956 50.1262 13.501C50.9675 13.011 52.0541 13.291 52.5098 14.131C53.0006 14.971 52.7202 16.056 51.8789 16.511C51.5985 16.686 51.283 16.756 51.0025 16.756C50.4066 16.756 49.8107 16.441 49.4953 15.881ZM3.96114 14.201C3.4704 15.041 3.75082 16.091 4.5921 16.581C4.87253 16.756 5.15295 16.826 5.46843 16.826C6.06434 16.826 6.66024 16.511 6.97572 15.951C7.46646 15.111 7.18604 14.061 6.34476 13.571C5.50348 13.081 4.45189 13.361 3.96114 14.201ZM52.7903 28.166V28.096C52.7903 27.116 53.5614 26.346 54.5429 26.346C55.5244 26.346 56.2956 27.116 56.2956 28.096V28.131V28.166C56.2956 29.146 55.5244 29.916 54.5429 29.916C53.5614 29.916 52.7903 29.146 52.7903 28.166ZM1.96311 26.451C0.98162 26.451 0.210449 27.221 0.210449 28.201C0.210449 29.181 1.01667 29.951 1.96311 29.951C2.9446 29.951 3.71577 29.181 3.71577 28.201C3.71577 27.221 2.9446 26.451 1.96311 26.451ZM50.1613 42.796C49.32 42.306 49.0396 41.256 49.5303 40.416C50.0211 39.576 51.0727 39.296 51.9139 39.786C52.7552 40.276 53.0356 41.326 52.5449 42.166C52.2294 42.726 51.6335 43.041 51.0376 43.041C50.7221 43.041 50.4417 42.971 50.1613 42.796ZM4.62715 39.821C3.78588 40.311 3.50545 41.361 3.9962 42.201C4.31168 42.761 4.90758 43.076 5.50348 43.076C5.81896 43.076 6.09939 42.971 6.37981 42.831C7.22109 42.376 7.50152 41.291 7.01077 40.451C6.52003 39.611 5.46843 39.331 4.62715 39.821ZM13.6358 50.041C13.1451 50.881 13.4255 51.931 14.2668 52.421C14.5122 52.596 14.8276 52.666 15.1431 52.666C15.739 52.666 16.3349 52.351 16.6504 51.791C17.1411 50.951 16.8607 49.901 16.0194 49.411C15.1782 48.921 14.1266 49.201 13.6358 50.041ZM28.253 52.666C27.2715 52.666 26.5004 53.436 26.5004 54.416C26.5354 55.396 27.3066 56.166 28.253 56.166C29.2345 56.166 30.0057 55.396 30.0057 54.416C30.0057 53.436 29.2345 52.666 28.253 52.666ZM39.8907 51.791C39.3999 50.951 39.6804 49.866 40.5216 49.411C41.3629 48.921 42.4145 49.201 42.9053 50.041C43.396 50.881 43.1156 51.966 42.2743 52.421C41.9939 52.596 41.7134 52.666 41.398 52.666C40.8021 52.631 40.2062 52.351 39.8907 51.791Z" fill="url(#paint5_linear_0_42)"/>
<defs>
<linearGradient id="paint0_linear_0_42" x1="15.9926" y1="40.4238" x2="40.5227" y2="40.4238" gradientUnits="userSpaceOnUse">
<stop stop-color="#A2C8FF"/>
<stop offset="0.5141" stop-color="#F772FF"/>
<stop offset="1" stop-color="#9A2AFF"/>
</linearGradient>
<linearGradient id="paint1_linear_0_42" x1="13.8251" y1="42.5825" x2="42.6915" y2="42.5825" gradientUnits="userSpaceOnUse">
<stop stop-color="#A2C8FF"/>
<stop offset="0.5141" stop-color="#F772FF"/>
<stop offset="1" stop-color="#9A2AFF"/>
</linearGradient>
<linearGradient id="paint2_linear_0_42" x1="11.0314" y1="45.3839" x2="45.4816" y2="45.3839" gradientUnits="userSpaceOnUse">
<stop stop-color="#A2C8FF"/>
<stop offset="0.5141" stop-color="#F772FF"/>
<stop offset="1" stop-color="#9A2AFF"/>
</linearGradient>
<linearGradient id="paint3_linear_0_42" x1="8.28763" y1="48.1166" x2="48.2248" y2="48.1166" gradientUnits="userSpaceOnUse">
<stop stop-color="#A2C8FF"/>
<stop offset="0.5141" stop-color="#F772FF"/>
<stop offset="1" stop-color="#9A2AFF"/>
</linearGradient>
<linearGradient id="paint4_linear_0_42" x1="4.75492" y1="51.6284" x2="51.7608" y2="51.6284" gradientUnits="userSpaceOnUse">
<stop stop-color="#A2C8FF"/>
<stop offset="0.5141" stop-color="#F772FF"/>
<stop offset="1" stop-color="#9A2AFF"/>
</linearGradient>
<linearGradient id="paint5_linear_0_42" x1="0.213744" y1="56.166" x2="56.2989" y2="56.166" gradientUnits="userSpaceOnUse">
<stop stop-color="#A2C8FF"/>
<stop offset="0.5141" stop-color="#F772FF"/>
<stop offset="1" stop-color="#9A2AFF"/>
</linearGradient>
</defs>
</svg>
