<svg width="32" height="28" viewBox="0 0 32 28" fill="none" xmlns="http://www.w3.org/2000/svg">
<path d="M31.5294 17.9291V19.5028C31.5294 19.6012 31.4791 19.6504 31.3784 19.6995C30.875 19.8962 29.1132 20.6831 28.4084 21.6667C26.5459 24.1748 25.1364 27.7648 22.0154 27.7648H8.8771C4.24596 27.7648 0.470581 24.0764 0.470581 19.5028V19.3553C0.470581 19.2569 0.571258 19.1586 0.671935 19.1586H8.07169C8.2227 19.1586 8.32338 19.3061 8.32338 19.4045C8.27304 19.8471 8.37372 20.3389 8.57507 20.7815C9.02812 21.6667 9.93421 22.1585 10.8906 22.1585H14.515V19.4045H10.941C10.7396 19.4045 10.6389 19.2077 10.7396 19.0602C10.79 19.011 10.8403 18.9619 10.8906 18.8635C11.243 18.3717 11.6961 17.6832 12.1994 16.8472C12.5518 16.3062 12.8538 15.6669 13.1055 15.0767C13.1559 14.9784 13.2062 14.88 13.2565 14.7325C13.3069 14.5358 13.4076 14.3391 13.4579 14.1915C13.5082 14.044 13.5586 13.8965 13.6089 13.7489C13.7096 13.2571 13.7599 12.7162 13.7599 12.126C13.7599 11.9293 13.7599 11.6834 13.7096 11.4375C13.7096 11.1916 13.6593 10.9457 13.6593 10.6999C13.6593 10.5031 13.6089 10.2572 13.5586 10.0605C13.5082 9.71628 13.4579 9.42121 13.3572 9.07696L13.3069 8.9786C13.2565 8.78189 13.2062 8.53599 13.1055 8.33928C12.9042 7.65078 12.6525 6.96228 12.4008 6.37213C12.3001 6.12624 12.1994 5.88035 12.0988 5.63446C11.9477 5.29021 11.7967 4.94595 11.6457 4.65088C11.5954 4.50335 11.4947 4.40499 11.4444 4.25745C11.394 4.10992 11.2933 3.96238 11.243 3.81485C11.1927 3.71649 11.1423 3.61813 11.092 3.51978L10.6389 2.73292C10.5886 2.63456 10.6893 2.48703 10.79 2.5362L13.5586 3.27388L13.9109 3.37224L14.3137 3.4706L14.4647 3.51978V1.89688C14.4647 1.11002 15.1191 0.470703 15.8741 0.470703C16.2769 0.470703 16.6292 0.618239 16.8809 0.864132C17.1326 1.11002 17.2836 1.45428 17.2836 1.8477V4.20828L17.5857 4.30663C17.5857 4.30663 17.636 4.30663 17.636 4.35581C17.6863 4.40499 17.787 4.50335 17.938 4.6017C18.0387 4.70006 18.1394 4.79842 18.2904 4.89678C18.5421 5.09349 18.8945 5.38856 19.2468 5.68363C19.3475 5.78199 19.4482 5.83117 19.4985 5.92953C19.9516 6.32296 20.4549 6.81474 20.9583 7.35571C21.1093 7.50324 21.21 7.65078 21.361 7.79831C21.5121 7.94585 21.6127 8.14256 21.7637 8.2901C21.9148 8.48681 22.1161 8.73271 22.2671 8.92942C22.3175 9.02778 22.4181 9.12614 22.4685 9.27367C22.6698 9.56874 22.8209 9.86381 23.0222 10.1589C23.0725 10.3064 23.1732 10.454 23.2236 10.6015C23.4249 10.9949 23.5759 11.3884 23.6263 11.831C23.6766 11.9293 23.6766 12.0277 23.6766 12.0769C23.7269 12.1752 23.7269 12.3227 23.7269 12.4703C23.7773 12.9129 23.7269 13.3063 23.6766 13.7489C23.6263 13.9456 23.5759 14.0932 23.5256 14.2899C23.4753 14.4374 23.4249 14.6341 23.3242 14.8309C23.1732 15.1751 22.9719 15.5194 22.7705 15.8636C22.7202 15.962 22.6195 16.1095 22.5188 16.257C22.4181 16.4046 22.3175 16.5029 22.2671 16.6505C22.1665 16.798 22.0154 16.9455 21.9148 17.0931C21.8141 17.2406 21.7134 17.3881 21.5624 17.5357C21.4114 17.7324 21.21 17.9291 21.059 18.1258C20.9583 18.2242 20.8577 18.3717 20.7066 18.4701C20.606 18.5684 20.5053 18.716 20.3543 18.8143C20.2033 18.9619 20.0522 19.1094 19.9012 19.2077L19.5992 19.4536C19.5489 19.5028 19.4985 19.5028 19.4482 19.5028H17.2333V22.2568H20.0019C20.606 22.2568 21.21 22.0601 21.6631 21.6667C21.8141 21.5191 22.5188 20.929 23.3746 20.0438C23.4249 19.9946 23.4249 19.9946 23.4753 19.9946L31.1267 17.8307C31.4287 17.6832 31.5294 17.7816 31.5294 17.9291Z" fill="white"/>
</svg>
